<?xml version="1.0" encoding="UTF-8"?>
<!DOCTYPE svg PUBLIC "-//W3C//DTD SVG 1.1//EN" "http://www.w3.org/Graphics/SVG/1.1/DTD/svg11.dtd">
<svg xmlns="http://www.w3.org/2000/svg" version="1.1" width="512px" height="512px" style="shape-rendering:geometricPrecision; text-rendering:geometricPrecision; image-rendering:optimizeQuality; fill-rule:evenodd; clip-rule:evenodd" xmlns:xlink="http://www.w3.org/1999/xlink">
<g><path style="opacity:0.915" fill="#000000" d="M 25.5,-0.5 C 29.8333,-0.5 34.1667,-0.5 38.5,-0.5C 38.23,26.5165 38.5633,53.5165 39.5,80.5C 91.8373,80.6277 144.171,80.2944 196.5,79.5C 195.922,52.8371 195.589,26.1704 195.5,-0.5C 199.833,-0.5 204.167,-0.5 208.5,-0.5C 208.672,29.1722 208.839,58.8388 209,88.5C 208.5,90.3333 207.333,91.5 205.5,92C 202.518,92.498 199.518,92.6646 196.5,92.5C 196.747,103.845 196.914,115.178 197,126.5C 196.3,130.066 194.467,132.9 191.5,135C 194.729,139.958 197.562,145.125 200,150.5C 226.986,138.614 254.153,127.114 281.5,116C 262.472,102.749 256.306,84.9155 263,62.5C 275.471,37.7822 294.971,29.6156 321.5,38C 334.42,43.9174 342.587,53.7507 346,67.5C 347.18,74.5913 347.68,81.5913 347.5,88.5C 373.167,77.8333 398.833,67.1667 424.5,56.5C 452.794,122.191 480.628,188.191 508,254.5C 510.582,265.759 507.415,274.925 498.5,282C 495.121,283.739 491.788,285.572 488.5,287.5C 490.498,293.828 492.498,300.161 494.5,306.5C 488.467,330.299 481.967,353.965 475,377.5C 473.167,380.5 471.333,383.5 469.5,386.5C 470.919,388.336 472.086,390.336 473,392.5C 473.5,404.495 473.667,416.495 473.5,428.5C 476.85,428.335 480.183,428.502 483.5,429C 484.333,429.833 485.167,430.667 486,431.5C 487.226,457.819 487.726,484.152 487.5,510.5C 483.167,510.5 478.833,510.5 474.5,510.5C 474.746,487.484 474.412,464.484 473.5,441.5C 421.162,441.324 368.829,441.658 316.5,442.5C 317.033,465.163 317.367,487.83 317.5,510.5C 313.167,510.5 308.833,510.5 304.5,510.5C 304.365,484.826 304.198,459.159 304,433.5C 304.465,432.069 305.299,430.903 306.5,430C 309.817,429.502 313.15,429.335 316.5,429.5C 315.833,417.836 315.667,406.17 316,394.5C 317.031,391.461 318.865,388.961 321.5,387C 316.303,379.243 312.969,370.743 311.5,361.5C 305.966,362.054 301.632,364.554 298.5,369C 273.261,381.289 247.595,392.456 221.5,402.5C 216.451,401.954 213.451,399.121 212.5,394C 220.457,377.418 217.457,363.085 203.5,351C 182.908,340.975 167.408,346.142 157,366.5C 154.291,375.626 155.291,384.292 160,392.5C 166.311,399.143 172.978,405.476 180,411.5C 181.858,418.617 179.358,423.451 172.5,426C 145.671,438.328 118.671,450.161 91.5,461.5C 62.2928,394.748 32.7928,328.081 3,261.5C 0.36956,245.804 6.53623,235.304 21.5,230C 22.0219,229.439 22.3552,228.772 22.5,228C 21.0658,223.864 19.7325,219.697 18.5,215.5C 24,194.833 29.5,174.167 35,153.5C 37.0305,147.106 39.8638,141.106 43.5,135.5C 42.081,133.664 40.9143,131.664 40,129.5C 39.5001,117.505 39.3335,105.505 39.5,93.5C 36.1501,93.665 32.8168,93.4983 29.5,93C 28.6667,92.1667 27.8333,91.3333 27,90.5C 25.739,60.1802 25.239,29.8469 25.5,-0.5 Z M 298.5,47.5 C 311.811,46.0947 322.311,50.7614 330,61.5C 332.34,65.5209 333.674,69.8543 334,74.5C 334,82.5 334,90.5 334,98.5C 334.833,100.667 336.333,102.167 338.5,103C 342.261,103.738 345.928,103.405 349.5,102C 372.126,92.4025 394.793,82.9025 417.5,73.5C 442.617,132.01 467.451,190.677 492,249.5C 493.982,253.444 495.148,257.611 495.5,262C 494.975,268.535 491.475,272.702 485,274.5C 478.48,255.941 472.147,237.274 466,218.5C 459.644,211.049 451.811,208.882 442.5,212C 431.397,216.347 425.23,224.514 424,236.5C 423.333,241.833 423.333,247.167 424,252.5C 426.552,266.804 428.552,281.137 430,295.5C 427.92,297.123 425.754,298.623 423.5,300C 384.052,316.224 344.718,332.724 305.5,349.5C 296.312,328.956 286.979,308.456 277.5,288C 309.535,289.46 327.201,274.293 330.5,242.5C 329.425,222.173 319.425,208.34 300.5,201C 282.171,195.778 266.338,199.944 253,213.5C 250.938,215.901 249.271,218.567 248,221.5C 238.826,199.656 228.993,178.156 218.5,157C 245.376,145.646 272.21,134.146 299,122.5C 301.615,118.979 301.949,115.312 300,111.5C 295.865,108.445 291.365,105.945 286.5,104C 271.725,90.6781 269.558,75.5114 280,58.5C 285.101,52.8729 291.267,49.2062 298.5,47.5 Z M 170.5,92.5 C 174.902,92.2281 179.235,92.5614 183.5,93.5C 184.499,103.812 184.832,114.145 184.5,124.5C 140.594,124.866 96.7608,124.866 53,124.5C 52.1814,114.256 52.348,104.09 53.5,94C 92.6688,93.8326 131.669,93.3326 170.5,92.5 Z M 86.5,137.5 C 116.835,137.333 147.168,137.5 177.5,138C 181.928,142.688 184.928,148.188 186.5,154.5C 185.811,156.353 184.478,157.519 182.5,158C 152.5,171.333 122.5,184.667 92.5,198C 86.5854,207.917 78.2521,214.917 67.5,219C 70.4883,235.429 73.3217,251.929 76,268.5C 77.3151,276.827 76.3151,284.827 73,292.5C 69.471,297.063 64.971,298.729 59.5,297.5C 50.1873,271.396 41.3539,245.062 33,218.5C 32.3333,216.167 32.3333,213.833 33,211.5C 38,192.833 43,174.167 48,155.5C 50.0547,149.723 52.888,144.389 56.5,139.5C 66.6586,138.833 76.6586,138.167 86.5,137.5 Z M 229.5,385.5 C 232.087,362.497 223.087,345.997 202.5,336C 177.481,328.443 158.647,335.943 146,358.5C 137.548,382.144 143.715,400.977 164.5,415C 142.711,424.979 120.877,434.812 99,444.5C 70.4385,381.472 42.2719,318.305 14.5,255C 16.1,247.898 20.4333,243.732 27.5,242.5C 33.3573,262.24 39.5239,281.906 46,301.5C 49.5507,307.612 54.8841,310.946 62,311.5C 76.1902,310.64 84.8569,303.307 88,289.5C 89.4406,282.89 89.774,276.224 89,269.5C 86.7402,256.015 84.5735,242.515 82.5,229C 83.7618,225.071 86.4284,222.405 90.5,221C 94.725,217.278 98.3916,213.112 101.5,208.5C 135.167,193.333 168.833,178.167 202.5,163C 204.701,162.175 206.534,162.675 208,164.5C 218.942,188.716 229.608,213.049 240,237.5C 243.997,241.857 248.497,242.523 253.5,239.5C 256.319,234.532 259.153,229.532 262,224.5C 273.878,212.506 287.378,210.34 302.5,218C 320.698,234.271 321.031,250.937 303.5,268C 301.5,269 299.5,270 297.5,271C 287.216,272.204 276.882,272.87 266.5,273C 263.44,275.01 261.774,277.843 261.5,281.5C 271.179,305.034 281.346,328.368 292,351.5C 292.755,354.497 291.922,356.997 289.5,359C 269.596,368.12 249.596,376.953 229.5,385.5 Z M 406.5,321.5 C 405.58,324.508 404.246,327.341 402.5,330C 406.167,331.833 409.833,333.667 413.5,335.5C 417.83,328.989 421.997,322.322 426,315.5C 431.6,309.949 438.1,305.782 445.5,303C 442.009,283.553 438.675,264.053 435.5,244.5C 435.95,239.193 437.45,234.193 440,229.5C 444.053,223.944 449.053,222.61 455,225.5C 463.706,252.616 472.206,279.783 480.5,307C 475.392,327.931 469.892,348.764 464,369.5C 461.21,374.917 458.043,380.084 454.5,385C 415.162,385.833 375.829,385.667 336.5,384.5C 328.805,376.141 324.805,366.475 324.5,355.5C 351.626,343.602 378.959,332.268 406.5,321.5 Z M 328.5,398.5 C 372.5,398.5 416.5,398.5 460.5,398.5C 460.38,408.188 460.713,417.854 461.5,427.5C 417.507,428.388 373.507,428.721 329.5,428.5C 328.634,418.527 328.301,408.527 328.5,398.5 Z"/></g>
<g><path style="opacity:0.891" fill="#000000" d="M 423.5,0.5 C 427.833,0.5 432.167,0.5 436.5,0.5C 436.601,10.8518 436.267,21.1851 435.5,31.5C 431.116,31.8256 426.783,31.4922 422.5,30.5C 423.475,20.5527 423.808,10.5527 423.5,0.5 Z"/></g>
<g><path style="opacity:0.869" fill="#000000" d="M 384.5,15.5 C 386.074,15.9371 387.241,16.9371 388,18.5C 392.039,26.7447 396.206,34.9114 400.5,43C 396.833,44.8333 393.167,46.6667 389.5,48.5C 384.336,39.817 379.336,30.9836 374.5,22C 378.069,20.0583 381.402,17.8916 384.5,15.5 Z"/></g>
<g><path style="opacity:0.869" fill="#000000" d="M 473.5,16.5 C 478.059,17.4463 482.059,19.4463 485.5,22.5C 481.175,31.8183 476.342,40.8183 471,49.5C 467.377,47.2775 463.877,44.9442 460.5,42.5C 464.86,33.7802 469.193,25.1136 473.5,16.5 Z"/></g>
<g><path style="opacity:0.864" fill="#000000" d="M 52.5,463.5 C 56.7998,464.648 60.4665,466.815 63.5,470C 59.4613,479.248 54.7946,488.081 49.5,496.5C 45.6733,494.754 42.0066,492.754 38.5,490.5C 43.4347,481.63 48.1014,472.63 52.5,463.5 Z"/></g>
<g><path style="opacity:0.877" fill="#000000" d="M 133.5,463.5 C 134.675,463.281 135.675,463.614 136.5,464.5C 140.578,472.991 144.912,481.324 149.5,489.5C 146.427,492.124 142.927,494.124 139,495.5C 138.228,495.355 137.561,495.022 137,494.5C 132.833,486.167 128.667,477.833 124.5,469.5C 127.357,467.242 130.357,465.242 133.5,463.5 Z"/></g>
<g><path style="opacity:0.884" fill="#000000" d="M 99.5,511.5 C 95.5,511.5 91.5,511.5 87.5,511.5C 87.5,501.167 87.5,490.833 87.5,480.5C 91.8333,480.5 96.1667,480.5 100.5,480.5C 100.76,490.872 100.427,501.206 99.5,511.5 Z"/></g>
</svg>
