<?xml version="1.0" encoding="UTF-8"?>
<!DOCTYPE svg PUBLIC "-//W3C//DTD SVG 1.1//EN" "http://www.w3.org/Graphics/SVG/1.1/DTD/svg11.dtd">
<svg xmlns="http://www.w3.org/2000/svg" version="1.1" width="512px" height="512px" style="shape-rendering:geometricPrecision; text-rendering:geometricPrecision; image-rendering:optimizeQuality; fill-rule:evenodd; clip-rule:evenodd" xmlns:xlink="http://www.w3.org/1999/xlink">
<g><path style="opacity:0.907" fill="#000000" d="M 251.5,45.5 C 254.187,45.3359 256.854,45.5026 259.5,46C 287.842,56.7796 316.009,67.9462 344,79.5C 345.134,90.5985 345.634,101.765 345.5,113C 347.041,137.061 344.208,160.561 337,183.5C 333.073,193.188 328.24,202.355 322.5,211C 329.43,214.714 336.263,218.547 343,222.5C 352.833,218.333 362.667,214.167 372.5,210C 372.011,200.785 375.678,193.785 383.5,189C 402.456,183.511 421.456,178.178 440.5,173C 454.018,170.513 462.184,176.013 465,189.5C 479.303,238.382 493.137,287.382 506.5,336.5C 506.174,345.322 501.84,351.156 493.5,354C 473.785,359.72 453.952,364.887 434,369.5C 424.931,369.432 418.931,365.099 416,356.5C 402.416,363.856 387.916,368.356 372.5,370C 369.579,375.915 365.579,380.915 360.5,385C 356.234,387.811 351.567,389.311 346.5,389.5C 351.384,408.897 344.718,422.397 326.5,430C 319.686,430.991 313.02,430.491 306.5,428.5C 300.012,449.831 286.012,457.664 264.5,452C 259.142,449.646 254.642,446.146 251,441.5C 242.582,464.621 227.082,471.121 204.5,461C 201.333,457.833 198.167,454.667 195,451.5C 180.442,458.609 169.442,454.942 162,440.5C 144.485,445.825 133.985,439.492 130.5,421.5C 131.115,418.961 131.782,416.461 132.5,414C 119.733,408.635 114.733,399.135 117.5,385.5C 104.776,381.394 99.7761,372.728 102.5,359.5C 100.833,357.167 98.8333,355.167 96.5,353.5C 92.8876,366.279 84.5543,371.445 71.5,369C 52.8333,363.667 34.1667,358.333 15.5,353C 8.33058,349.674 4.66391,344.008 4.5,336C 18.8607,283.586 34.0273,231.419 50,179.5C 55.4327,173.134 62.266,170.968 70.5,173C 89.5445,178.178 108.544,183.511 127.5,189C 135.197,193.226 138.53,199.726 137.5,208.5C 152.798,206.337 168.131,204.504 183.5,203C 175.035,188.608 169.535,173.108 167,156.5C 165.925,142.528 165.425,128.528 165.5,114.5C 165.353,102.741 165.853,91.0741 167,79.5C 195.21,68.0467 223.376,56.7133 251.5,45.5 Z M 253.5,58.5 C 279.756,67.3646 305.756,77.0313 331.5,87.5C 332.937,110.863 332.77,134.196 331,157.5C 327.899,175.358 321.233,191.691 311,206.5C 305.816,204.329 300.65,202.162 295.5,200C 305.495,186.028 311.995,170.528 315,153.5C 316.545,136.198 316.878,118.865 316,101.5C 315.535,100.069 314.701,98.9025 313.5,98C 294.394,90.1323 275.06,82.9656 255.5,76.5C 236.094,83.3589 216.761,90.5256 197.5,98C 196.299,98.9025 195.465,100.069 195,101.5C 194.122,118.865 194.455,136.198 196,153.5C 198.75,169.823 204.916,184.656 214.5,198C 210.934,201.241 206.768,203.074 202,203.5C 200.5,203.167 199,202.833 197.5,202.5C 187.673,186.853 181.506,169.853 179,151.5C 178.5,130.169 178.333,108.836 178.5,87.5C 203.799,78.4039 228.799,68.7372 253.5,58.5 Z M 253.5,89.5 C 270.685,94.8403 287.519,101.174 304,108.5C 308.714,140.813 301.547,169.979 282.5,196C 270.974,193.859 259.308,192.359 247.5,191.5C 240.464,192.009 233.464,192.509 226.5,193C 213.952,176.714 207.452,158.214 207,137.5C 206.333,127.833 206.333,118.167 207,108.5C 222.623,102.243 238.123,95.9093 253.5,89.5 Z M 63.5,184.5 C 82.6061,189.194 101.606,194.36 120.5,200C 123.033,201.033 124.699,202.867 125.5,205.5C 111.234,254.465 97.0674,303.465 83,352.5C 81.9152,355.25 79.9152,356.917 77,357.5C 58.5222,352.256 40.0222,347.089 21.5,342C 18.5583,341.06 17.2249,339.06 17.5,336C 31.2757,286.398 45.4424,236.898 60,187.5C 61.1451,186.364 62.3117,185.364 63.5,184.5 Z M 443.5,184.5 C 449.379,184.544 452.546,187.544 453,193.5C 466.707,240.952 480.207,288.452 493.5,336C 493.775,339.06 492.442,341.06 489.5,342C 470.978,347.089 452.478,352.256 434,357.5C 431.085,356.917 429.085,355.25 428,352.5C 413.988,303.449 399.821,254.449 385.5,205.5C 386.301,202.867 387.967,201.033 390.5,200C 408.368,195.095 426.035,189.928 443.5,184.5 Z M 244.5,203.5 C 279.792,206.43 312.292,217.43 342,236.5C 353.684,231.496 365.35,226.496 377,221.5C 388.835,262.172 400.668,302.839 412.5,343.5C 400.263,351.135 386.93,355.802 372.5,357.5C 371.935,350.703 369.435,344.703 365,339.5C 336.833,311.333 308.667,283.167 280.5,255C 266.622,243.41 251.622,241.744 235.5,250C 223.192,261.976 211.192,274.309 199.5,287C 184.713,293.934 174.546,289.768 169,274.5C 168.333,271.833 168.333,269.167 169,266.5C 178.663,245.017 193.163,227.517 212.5,214C 222.613,208.351 233.279,204.851 244.5,203.5 Z M 188.5,216.5 C 175.066,229.777 164.566,245.111 157,262.5C 153.723,282.466 161.556,295.632 180.5,302C 190.187,303.836 199.187,302.17 207.5,297C 218.5,285.333 229.5,273.667 240.5,262C 251.312,255.54 261.646,256.207 271.5,264C 299.667,292.167 327.833,320.333 356,348.5C 362.046,356.768 361.879,364.935 355.5,373C 349.725,377.514 343.391,378.514 336.5,376C 319.862,360.362 303.529,344.362 287.5,328C 281.872,323.954 277.872,325.12 275.5,331.5C 275.719,332.938 276.219,334.271 277,335.5C 296.056,354.222 314.723,373.222 333,392.5C 338.093,404.557 334.593,413.057 322.5,418C 317.928,418.887 313.595,418.22 309.5,416C 290.472,396.638 271.138,377.638 251.5,359C 243.895,358.156 241.395,361.323 244,368.5C 260.729,384.56 276.729,401.227 292,418.5C 294.757,431.582 289.59,439.582 276.5,442.5C 272.946,441.945 269.613,440.779 266.5,439C 258.137,430.303 249.47,421.969 240.5,414C 235.706,413.105 232.706,415.105 231.5,420C 233.802,424.104 235.968,428.27 238,432.5C 239.583,442.834 235.416,449.667 225.5,453C 216.635,453.848 209.635,450.515 204.5,443C 212.452,436.054 219.286,428.221 225,419.5C 228.563,407.508 225.063,398.341 214.5,392C 211.607,390.851 208.607,390.351 205.5,390.5C 204.499,376.832 197.165,369.499 183.5,368.5C 182.833,355.167 175.833,348.167 162.5,347.5C 159.254,329.037 148.588,322.537 130.5,328C 123.35,334.316 116.35,340.816 109.5,347.5C 105.758,344.762 102.758,341.428 100.5,337.5C 111.514,299.11 122.68,260.777 134,222.5C 151.898,218.426 170.064,216.426 188.5,216.5 Z M 81.5,217.5 C 89.3296,216.495 92.4963,219.828 91,227.5C 86.6667,232.833 82.3333,232.833 78,227.5C 77.3333,225.5 77.3333,223.5 78,221.5C 79.3756,220.295 80.5423,218.962 81.5,217.5 Z M 423.5,217.5 C 431.489,217.313 434.322,220.979 432,228.5C 425.744,233.28 421.244,231.946 418.5,224.5C 419.065,221.284 420.732,218.951 423.5,217.5 Z M 137.5,338.5 C 144.603,337.202 148.603,340.035 149.5,347C 149.458,348.967 148.958,350.801 148,352.5C 141.5,359 135,365.5 128.5,372C 120.775,375.303 115.775,372.97 113.5,365C 114.329,363.184 115.163,361.351 116,359.5C 123.062,352.27 130.229,345.27 137.5,338.5 Z M 159.5,359.5 C 169.81,360.135 172.977,365.135 169,374.5C 160.5,383 152,391.5 143.5,400C 141.649,400.837 139.816,401.671 138,402.5C 130.004,400.174 127.671,395.174 131,387.5C 140.395,377.937 149.895,368.604 159.5,359.5 Z M 180.5,381.5 C 187.603,380.202 191.603,383.035 192.5,390C 192.458,391.967 191.958,393.801 191,395.5C 180.167,406.333 169.333,417.167 158.5,428C 152.376,432.043 147.542,430.876 144,424.5C 143.245,421.697 143.578,419.03 145,416.5C 156.728,404.604 168.562,392.937 180.5,381.5 Z M 202.5,402.5 C 209.367,401.703 213.367,404.703 214.5,411.5C 213.946,413.61 213.112,415.61 212,417.5C 204.167,425.333 196.333,433.167 188.5,441C 177,444.167 172.833,440 176,428.5C 184.728,419.604 193.562,410.937 202.5,402.5 Z"/></g>
<g><path style="opacity:0.887" fill="#000000" d="M 279.5,123.5 C 288.379,122.735 290.879,126.402 287,134.5C 274.5,147 262,159.5 249.5,172C 246.167,174 242.833,174 239.5,172C 234.333,166.833 229.167,161.667 224,156.5C 220.752,148.758 223.252,145.258 231.5,146C 235.5,150 239.5,154 243.5,158C 244.167,158.667 244.833,158.667 245.5,158C 257.035,146.632 268.369,135.132 279.5,123.5 Z"/></g>
<g><path style="opacity:0.911" fill="#000000" d="M 83.5,204.5 C 99.5078,206.67 106.008,215.67 103,231.5C 96.2209,243.888 86.3876,247.055 73.5,241C 61.9636,230.123 61.9636,219.123 73.5,208C 76.8502,206.514 80.1835,205.347 83.5,204.5 Z M 81.5,217.5 C 80.5423,218.962 79.3756,220.295 78,221.5C 77.3333,223.5 77.3333,225.5 78,227.5C 82.3333,232.833 86.6667,232.833 91,227.5C 92.4963,219.828 89.3296,216.495 81.5,217.5 Z"/></g>
<g><path style="opacity:0.905" fill="#000000" d="M 424.5,204.5 C 443.653,207.803 449.486,218.469 442,236.5C 431.832,246.152 421.498,246.486 411,237.5C 403.635,225.611 405.469,215.444 416.5,207C 419.31,206.218 421.977,205.384 424.5,204.5 Z M 423.5,217.5 C 420.732,218.951 419.065,221.284 418.5,224.5C 421.244,231.946 425.744,233.28 432,228.5C 434.322,220.979 431.489,217.313 423.5,217.5 Z"/></g>
</svg>
