<?xml version="1.0" encoding="UTF-8"?>
<!DOCTYPE svg PUBLIC "-//W3C//DTD SVG 1.1//EN" "http://www.w3.org/Graphics/SVG/1.1/DTD/svg11.dtd">
<svg xmlns="http://www.w3.org/2000/svg" version="1.1" width="512px" height="512px" style="shape-rendering:geometricPrecision; text-rendering:geometricPrecision; image-rendering:optimizeQuality; fill-rule:evenodd; clip-rule:evenodd" xmlns:xlink="http://www.w3.org/1999/xlink">
<g><path style="opacity:0.946" fill="#000000" d="M 233.5,-0.5 C 248.167,-0.5 262.833,-0.5 277.5,-0.5C 377.807,11.9842 449.307,63.9842 492,155.5C 502.136,180.378 508.636,206.045 511.5,232.5C 511.5,247.5 511.5,262.5 511.5,277.5C 499.016,377.807 447.016,449.307 355.5,492C 330.316,502.296 304.316,508.796 277.5,511.5C 262.833,511.5 248.167,511.5 233.5,511.5C 133.193,499.016 61.693,447.016 19,355.5C 8.86452,330.623 2.36452,304.957 -0.5,278.5C -0.5,263.167 -0.5,247.833 -0.5,232.5C 9.30557,148.243 49.6389,83.0763 120.5,37C 155.422,15.9704 193.088,3.4704 233.5,-0.5 Z M 254.5,19.5 C 347.018,23.4817 416.518,65.1484 463,144.5C 476.624,169.538 485.124,196.204 488.5,224.5C 480.833,224.5 473.167,224.5 465.5,224.5C 451.451,145.626 407.784,90.1257 334.5,58C 268.636,33.8987 205.302,39.232 144.5,74C 89.3405,109.373 56.3405,159.54 45.5,224.5C 37.8333,224.5 30.1667,224.5 22.5,224.5C 34.5228,148.236 73.5228,90.4028 139.5,51C 175.329,30.9617 213.663,20.4617 254.5,19.5 Z M 254.5,63.5 C 327.74,66.3277 383.573,98.6611 422,160.5C 432.976,180.26 440.476,201.26 444.5,223.5C 318.5,224.833 192.5,224.833 66.5,223.5C 81.1117,152.727 121.778,103.56 188.5,76C 209.977,68.2698 231.977,64.1031 254.5,63.5 Z M 254.5,119.5 C 255.496,119.414 256.329,119.748 257,120.5C 260.275,128.735 266.441,132.902 275.5,133C 268.48,139.231 265.48,147.064 266.5,156.5C 262.981,154.771 259.314,153.438 255.5,152.5C 251.686,153.438 248.019,154.771 244.5,156.5C 245.52,147.064 242.52,139.231 235.5,133C 239.984,132.129 244.317,130.796 248.5,129C 251.119,126.216 253.119,123.049 254.5,119.5 Z M 154.5,149.5 C 156.908,153.726 160.575,156.226 165.5,157C 162.349,160.135 160.683,163.968 160.5,168.5C 156.833,167.167 153.167,167.167 149.5,168.5C 149.074,164.46 147.741,160.793 145.5,157.5C 149.802,156.193 152.802,153.526 154.5,149.5 Z M 355.5,149.5 C 357.905,153.229 361.238,155.896 365.5,157.5C 363.259,160.793 361.926,164.46 361.5,168.5C 357.833,167.167 354.167,167.167 350.5,168.5C 350.317,163.968 348.651,160.135 345.5,157C 350.46,156.526 353.793,154.026 355.5,149.5 Z M 20.5,245.5 C 177.167,245.5 333.833,245.5 490.5,245.5C 492.294,287.819 483.294,327.653 463.5,365C 407.455,365.016 351.455,365.683 295.5,367C 290.404,371.248 289.237,376.415 292,382.5C 293.214,384.049 294.714,385.215 296.5,386C 329.167,386.333 361.833,386.667 394.5,387C 339.791,441.007 275.125,458.341 200.5,439C 167.851,428.986 139.851,411.653 116.5,387C 149.167,386.667 181.833,386.333 214.5,386C 220.542,382.252 222.042,377.085 219,370.5C 217.833,369.333 216.667,368.167 215.5,367C 159.545,365.683 103.545,365.016 47.5,365C 27.7058,327.653 18.7058,287.819 20.5,245.5 Z M 82.5,291.5 C 92.2498,290.203 98.5831,294.203 101.5,303.5C 95.8348,302.477 91.0015,304.144 87,308.5C 85.3921,311.793 85.2255,315.127 86.5,318.5C 82.3635,319.283 78.8635,317.949 76,314.5C 70.7564,304.732 72.923,297.065 82.5,291.5 Z M 60.5,387.5 C 69.6575,386.342 78.9908,386.176 88.5,387C 141.589,450.153 209.256,476.153 291.5,465C 344.978,455.109 388.645,429.109 422.5,387C 431.833,386.333 441.167,386.333 450.5,387C 403.018,453.751 338.018,488.585 255.5,491.5C 173.144,488.5 108.144,453.833 60.5,387.5 Z"/></g>
<g><path style="opacity:0.945" fill="#000000" d="M 252.5,88.5 C 256.131,88.1604 259.464,88.9937 262.5,91C 267.029,97.364 271.363,103.864 275.5,110.5C 283.38,113.305 291.38,115.805 299.5,118C 304.936,122.785 305.77,128.285 302,134.5C 297.288,139.543 292.955,144.877 289,150.5C 289.419,159.146 289.419,167.813 289,176.5C 285.723,182.109 280.89,183.942 274.5,182C 268.167,179.5 261.833,177 255.5,174.5C 247.948,178.073 240.115,180.739 232,182.5C 227.268,182.802 223.935,180.802 222,176.5C 221.581,167.813 221.581,159.146 222,150.5C 216.615,144.116 211.615,137.45 207,130.5C 205.924,125.393 207.424,121.226 211.5,118C 219.62,115.805 227.62,113.305 235.5,110.5C 239.136,104.366 242.969,98.366 247,92.5C 248.812,91.0229 250.645,89.6896 252.5,88.5 Z M 254.5,119.5 C 253.119,123.049 251.119,126.216 248.5,129C 244.317,130.796 239.984,132.129 235.5,133C 242.52,139.231 245.52,147.064 244.5,156.5C 248.019,154.771 251.686,153.438 255.5,152.5C 259.314,153.438 262.981,154.771 266.5,156.5C 265.48,147.064 268.48,139.231 275.5,133C 266.441,132.902 260.275,128.735 257,120.5C 256.329,119.748 255.496,119.414 254.5,119.5 Z"/></g>
<g><path style="opacity:0.951" fill="#000000" d="M 152.5,119.5 C 155.271,119.421 157.937,119.921 160.5,121C 165.23,125.797 169.23,131.13 172.5,137C 196.854,140.728 200.354,151.228 183,168.5C 182.67,174.521 182.67,180.521 183,186.5C 180.517,194.079 175.35,196.579 167.5,194C 163.483,192.074 159.316,190.574 155,189.5C 149.29,191.682 143.457,193.349 137.5,194.5C 130.774,194.275 127.107,190.775 126.5,184C 127.637,178.918 127.804,173.751 127,168.5C 123.425,164.347 120.091,160.014 117,155.5C 115.058,149.11 116.891,144.277 122.5,141C 127.543,139.822 132.543,138.489 137.5,137C 140.457,132.92 143.29,128.753 146,124.5C 147.805,122.174 149.972,120.508 152.5,119.5 Z M 154.5,149.5 C 152.802,153.526 149.802,156.193 145.5,157.5C 147.741,160.793 149.074,164.46 149.5,168.5C 153.167,167.167 156.833,167.167 160.5,168.5C 160.683,163.968 162.349,160.135 165.5,157C 160.575,156.226 156.908,153.726 154.5,149.5 Z"/></g>
<g><path style="opacity:0.951" fill="#000000" d="M 353.5,119.5 C 356.271,119.421 358.937,119.921 361.5,121C 365.743,126.154 369.743,131.488 373.5,137C 378.457,138.489 383.457,139.822 388.5,141C 394.109,144.277 395.942,149.11 394,155.5C 390.909,160.014 387.575,164.347 384,168.5C 383.196,173.751 383.363,178.918 384.5,184C 382.828,192.984 377.494,196.317 368.5,194C 364.396,192.299 360.229,190.799 356,189.5C 350.29,191.682 344.457,193.349 338.5,194.5C 331.233,194.567 327.566,190.9 327.5,183.5C 328.498,178.524 328.665,173.524 328,168.5C 323.03,163.387 319.196,157.553 316.5,151C 317.119,146.417 319.452,143.083 323.5,141C 328.543,139.822 333.543,138.489 338.5,137C 341.373,133.423 343.873,129.589 346,125.5C 348.134,122.847 350.634,120.847 353.5,119.5 Z M 355.5,149.5 C 353.793,154.026 350.46,156.526 345.5,157C 348.651,160.135 350.317,163.968 350.5,168.5C 354.167,167.167 357.833,167.167 361.5,168.5C 361.926,164.46 363.259,160.793 365.5,157.5C 361.238,155.896 357.905,153.229 355.5,149.5 Z"/></g>
<g><path style="opacity:0.944" fill="#000000" d="M 79.5,270.5 C 104.886,268.683 119.22,280.35 122.5,305.5C 122.367,311.009 121.033,316.176 118.5,321C 123.367,326.4 123.7,332.067 119.5,338C 113.772,341.305 108.105,341.138 102.5,337.5C 84.0287,344.426 68.8621,340.093 57,324.5C 48.2695,307.157 50.7695,291.657 64.5,278C 69.3236,274.921 74.3236,272.421 79.5,270.5 Z M 82.5,291.5 C 72.923,297.065 70.7564,304.732 76,314.5C 78.8635,317.949 82.3635,319.283 86.5,318.5C 85.2255,315.127 85.3921,311.793 87,308.5C 91.0015,304.144 95.8348,302.477 101.5,303.5C 98.5831,294.203 92.2498,290.203 82.5,291.5 Z"/></g>
<g><path style="opacity:0.942" fill="#000000" d="M 138.5,270.5 C 145.445,268.775 150.278,271.108 153,277.5C 153.333,290.5 153.667,303.5 154,316.5C 158.075,320.41 162.075,320.41 166,316.5C 166.073,302.778 166.74,289.112 168,275.5C 173.708,269.285 179.708,268.952 186,274.5C 187.635,290.074 187.968,305.741 187,321.5C 180.828,336.343 169.661,342.509 153.5,340C 142.658,337.158 135.825,330.325 133,319.5C 132.333,305.5 132.333,291.5 133,277.5C 133.967,274.379 135.8,272.046 138.5,270.5 Z"/></g>
<g><path style="opacity:0.951" fill="#000000" d="M 218.5,270.5 C 226.62,268.972 232.12,271.972 235,279.5C 241.367,296.27 247.534,313.103 253.5,330C 251.404,339.55 245.737,342.55 236.5,339C 233.76,336.117 231.76,332.784 230.5,329C 225.467,328.171 220.467,328.338 215.5,329.5C 213.424,338.09 208.091,341.59 199.5,340C 193.891,336.723 192.058,331.89 194,325.5C 200.471,308.421 207.137,291.421 214,274.5C 215.397,272.93 216.897,271.596 218.5,270.5 Z"/></g>
<g><path style="opacity:0.94" fill="#000000" d="M 270.5,270.5 C 276.59,269.137 281.09,271.137 284,276.5C 284.5,290.829 284.667,305.163 284.5,319.5C 290.971,318.345 296.471,320.011 301,324.5C 303.718,331.349 301.885,336.516 295.5,340C 287.167,340.667 278.833,340.667 270.5,340C 268,338.833 266.167,337 265,334.5C 263.388,316.553 263.054,298.553 264,280.5C 264.373,275.968 266.54,272.634 270.5,270.5 Z"/></g>
<g><path style="opacity:0.933" fill="#000000" d="M 324.5,270.5 C 330.898,269.053 335.731,271.053 339,276.5C 339.667,295.5 339.667,314.5 339,333.5C 337.604,338.536 334.271,340.869 329,340.5C 324.117,340.391 320.784,338.058 319,333.5C 318.333,314.833 318.333,296.167 319,277.5C 319.967,274.379 321.8,272.046 324.5,270.5 Z"/></g>
<g><path style="opacity:0.943" fill="#000000" d="M 360.5,270.5 C 373.266,270.039 385.933,270.539 398.5,272C 404.048,278.292 403.715,284.292 397.5,290C 394.607,291.149 391.607,291.649 388.5,291.5C 388.667,305.837 388.5,320.171 388,334.5C 384.252,340.542 379.085,342.042 372.5,339C 369.732,337.238 368.232,334.738 368,331.5C 367.5,318.171 367.333,304.837 367.5,291.5C 357.688,291.189 353.521,286.189 355,276.5C 356.36,273.977 358.193,271.977 360.5,270.5 Z"/></g>
<g><path style="opacity:0.934" fill="#000000" d="M 413.5,270.5 C 416.978,270.184 420.312,270.684 423.5,272C 427.036,276.237 430.202,280.737 433,285.5C 435.772,279.769 439.606,274.935 444.5,271C 454.333,269.505 459.166,273.672 459,283.5C 454.396,291.766 449.396,299.766 444,307.5C 443.667,316.167 443.333,324.833 443,333.5C 440.27,340.053 435.437,342.22 428.5,340C 425.619,338.749 423.786,336.583 423,333.5C 422.667,324.833 422.333,316.167 422,307.5C 415.924,299.18 410.758,290.347 406.5,281C 407.109,276.246 409.442,272.746 413.5,270.5 Z"/></g>
<g><path style="opacity:0.899" fill="#000000" d="M 255.5,365.5 C 265.513,368.022 268.347,374.022 264,383.5C 260.319,386.36 256.152,387.193 251.5,386C 245.458,382.252 243.958,377.085 247,370.5C 249.166,367.468 252,365.802 255.5,365.5 Z"/></g>
</svg>
