<?xml version="1.0" encoding="UTF-8"?>
<!DOCTYPE svg PUBLIC "-//W3C//DTD SVG 1.1//EN" "http://www.w3.org/Graphics/SVG/1.1/DTD/svg11.dtd">
<svg xmlns="http://www.w3.org/2000/svg" version="1.1" width="512px" height="512px" style="shape-rendering:geometricPrecision; text-rendering:geometricPrecision; image-rendering:optimizeQuality; fill-rule:evenodd; clip-rule:evenodd" xmlns:xlink="http://www.w3.org/1999/xlink">
<g><path style="opacity:0.928" fill="#000000" d="M 252.5,29.5 C 258.369,29.0657 263.202,31.0657 267,35.5C 270.578,42.9909 274.412,50.3242 278.5,57.5C 286.845,58.8593 295.178,60.3593 303.5,62C 312.771,66.8926 314.938,74.0593 310,83.5C 304.333,89.1667 298.667,94.8333 293,100.5C 294.429,110.09 295.096,119.756 295,129.5C 290.521,137.989 283.688,140.822 274.5,138C 268.44,134.304 262.107,131.137 255.5,128.5C 247.582,132.295 239.582,135.795 231.5,139C 221.107,139.777 215.441,134.944 214.5,124.5C 216.216,116.543 217.382,108.543 218,100.5C 212.333,94.8333 206.667,89.1667 201,83.5C 195.744,71.8465 199.244,64.3465 211.5,61C 218.552,60.0468 225.552,58.8802 232.5,57.5C 236.063,50.0405 239.897,42.7072 244,35.5C 246.322,32.6047 249.155,30.6047 252.5,29.5 Z M 254.5,49.5 C 255.376,49.3691 256.043,49.7025 256.5,50.5C 259.617,57.9084 263.617,64.7417 268.5,71C 269.833,71.6667 271.167,72.3333 272.5,73C 279.582,74.058 286.582,75.3913 293.5,77C 287.258,82.5714 281.758,88.738 277,95.5C 276.303,103.985 277.136,112.318 279.5,120.5C 279.167,120.833 278.833,121.167 278.5,121.5C 271.163,117.33 263.496,113.996 255.5,111.5C 247.544,113.973 239.878,117.307 232.5,121.5C 232.167,121 231.833,120.5 231.5,120C 233.702,111.958 234.536,103.791 234,95.5C 229.242,88.738 223.742,82.5714 217.5,77C 224.418,75.3913 231.418,74.058 238.5,73C 241.562,71.9392 244.062,70.1059 246,67.5C 249.118,61.5992 251.951,55.5992 254.5,49.5 Z"/></g>
<g><path style="opacity:0.926" fill="#000000" d="M 142.5,69.5 C 148.565,69.2824 153.398,71.6157 157,76.5C 160.975,83.6188 164.809,90.7854 168.5,98C 176.575,98.9627 184.575,100.296 192.5,102C 201.282,106.417 203.782,113.25 200,122.5C 194.199,129.302 188.032,135.802 181.5,142C 190.627,180.368 178.46,188.868 145,167.5C 137.299,172.434 129.133,176.434 120.5,179.5C 111.036,178.535 105.703,173.368 104.5,164C 105.516,156.57 106.849,149.237 108.5,142C 101.261,135.431 94.761,128.265 89,120.5C 86.1885,110.308 90.0219,103.808 100.5,101C 107.5,100 114.5,99 121.5,98C 125.715,91.0717 129.548,83.905 133,76.5C 135.529,73.1151 138.696,70.7818 142.5,69.5 Z M 168.5,161.5 C 162.886,158.693 157.22,155.86 151.5,153C 147.167,151 142.833,151 138.5,153C 132.78,155.86 127.114,158.693 121.5,161.5C 122.335,154.653 123.335,147.819 124.5,141C 124.176,136.692 122.676,132.859 120,129.5C 115.199,125.701 110.699,121.534 106.5,117C 113.449,115.423 120.449,114.089 127.5,113C 129.725,112.439 131.725,111.439 133.5,110C 137.715,103.072 141.548,95.905 145,88.5C 148.452,95.905 152.285,103.072 156.5,110C 158.275,111.439 160.275,112.439 162.5,113C 169.582,114.058 176.582,115.391 183.5,117C 177.634,122.531 172.134,128.365 167,134.5C 166.192,136.423 165.692,138.423 165.5,140.5C 166.827,147.463 167.827,154.463 168.5,161.5 Z"/></g>
<g><path style="opacity:0.925" fill="#000000" d="M 363.5,70.5 C 369.944,70.0653 375.11,72.3986 379,77.5C 382.372,84.4115 385.872,91.2449 389.5,98C 398.656,98.9263 407.656,100.593 416.5,103C 423.717,108.073 425.217,114.573 421,122.5C 415.699,128.802 410.032,134.802 404,140.5C 404.885,149.811 405.551,159.145 406,168.5C 401.959,177.771 395.126,180.938 385.5,178C 378.761,174.882 372.261,171.382 366,167.5C 358.633,172.267 350.799,176.1 342.5,179C 331.708,180.261 326.041,175.428 325.5,164.5C 326.512,156.763 327.845,149.096 329.5,141.5C 323.875,136.376 318.375,131.042 313,125.5C 305.304,113.587 308.137,105.42 321.5,101C 328.5,100 335.5,99 342.5,98C 346.715,91.0717 350.548,83.905 354,76.5C 356.551,73.3191 359.718,71.3191 363.5,70.5 Z M 389.5,161.5 C 382.094,157.215 374.26,153.882 366,151.5C 357.969,153.598 350.469,156.931 343.5,161.5C 343.167,160.667 342.833,159.833 342.5,159C 344.267,151.572 345.101,144.072 345,136.5C 344,134.5 343,132.5 342,130.5C 336.881,126.348 332.048,121.848 327.5,117C 334.782,115.453 342.116,114.119 349.5,113C 350.833,112.333 352.167,111.667 353.5,111C 358.301,103.903 362.467,96.4029 366,88.5C 369.452,95.905 373.285,103.072 377.5,110C 379.275,111.439 381.275,112.439 383.5,113C 390.582,114.058 397.582,115.391 404.5,117C 398.634,122.531 393.134,128.365 388,134.5C 387.192,136.423 386.692,138.423 386.5,140.5C 387.827,147.463 388.827,154.463 389.5,161.5 Z"/></g>
<g><path style="opacity:0.928" fill="#000000" d="M 511.5,200.5 C 511.5,204.167 511.5,207.833 511.5,211.5C 505.618,217.885 499.452,224.218 493,230.5C 493.668,238.684 494.835,246.851 496.5,255C 495.315,265.92 489.315,270.587 478.5,269C 470.859,265.514 463.192,262.014 455.5,258.5C 447.625,262.855 439.458,266.522 431,269.5C 420.896,268.878 415.729,263.545 415.5,253.5C 416.561,245.815 417.394,238.149 418,230.5C 412.667,225.167 407.333,219.833 402,214.5C 396.538,206.108 397.704,198.941 405.5,193C 414.402,190.751 423.402,188.918 432.5,187.5C 436.588,180.324 440.422,172.991 444,165.5C 452.353,156.082 460.353,156.415 468,166.5C 471.452,173.905 475.285,181.072 479.5,188C 487.565,188.962 495.565,190.295 503.5,192C 507.103,194.098 509.77,196.932 511.5,200.5 Z M 455.5,178.5 C 458.908,186.477 463.242,193.977 468.5,201C 469.833,201.667 471.167,202.333 472.5,203C 479.591,204.014 486.591,205.348 493.5,207C 487.258,212.571 481.758,218.738 477,225.5C 476.409,233.63 477.243,241.63 479.5,249.5C 479.167,250.167 478.833,250.833 478.5,251.5C 473.008,248.921 467.675,246.088 462.5,243C 458.167,241 453.833,241 449.5,243C 443.833,245.833 438.167,248.667 432.5,251.5C 432.167,251.167 431.833,250.833 431.5,250.5C 433.864,242.318 434.697,233.985 434,225.5C 429.242,218.738 423.742,212.571 417.5,207C 424.418,205.391 431.418,204.058 438.5,203C 441.562,201.939 444.062,200.106 446,197.5C 449.18,191.14 452.347,184.807 455.5,178.5 Z"/></g>
<g><path style="opacity:0.927" fill="#000000" d="M -0.5,210.5 C -0.5,206.833 -0.5,203.167 -0.5,199.5C 1.64111,196.528 4.30777,194.028 7.5,192C 15.4345,190.295 23.4345,188.962 31.5,188C 35.7151,181.072 39.5484,173.905 43,166.5C 50.0441,159.311 57.7108,158.644 66,164.5C 70.1667,172.167 74.3333,179.833 78.5,187.5C 85.4477,188.88 92.4477,190.047 99.5,191C 111.8,195.197 114.967,203.03 109,214.5C 103.667,219.833 98.3333,225.167 93,230.5C 93.3882,238.176 94.2216,245.843 95.5,253.5C 95.1392,263.699 89.8058,269.033 79.5,269.5C 71.2356,266.367 63.2356,262.7 55.5,258.5C 47.8384,261.997 40.1717,265.497 32.5,269C 20.7915,270.964 14.7915,265.964 14.5,254C 16.0576,246.161 17.2243,238.328 18,230.5C 10.5263,224.867 4.35963,218.2 -0.5,210.5 Z M 54.5,178.5 C 58.1197,184.135 61.2863,190.135 64,196.5C 65.8333,198.333 67.6667,200.167 69.5,202C 77.5024,203.761 85.5024,205.428 93.5,207C 87.634,212.531 82.134,218.365 77,224.5C 76.5,226.5 76,228.5 75.5,230.5C 77.0059,237.865 78.1726,245.198 79,252.5C 71.613,247.473 63.613,243.806 55,241.5C 52.7473,241.631 50.5806,242.131 48.5,243C 43.3252,246.088 37.9918,248.921 32.5,251.5C 32.1667,250.667 31.8333,249.833 31.5,249C 32.8245,243.053 33.8245,237.053 34.5,231C 34.4347,228.409 33.9347,225.909 33,223.5C 28.1667,217.333 22.6667,211.833 16.5,207C 23.7888,205.482 31.1221,204.149 38.5,203C 41.1024,202.117 43.2691,200.617 45,198.5C 48.451,191.933 51.6177,185.266 54.5,178.5 Z"/></g>
<g><path style="opacity:0.932" fill="#000000" d="M 263.5,181.5 C 274.692,181.344 283.192,186.011 289,195.5C 294.218,208.365 296.885,221.698 297,235.5C 293.58,239.753 289.413,240.587 284.5,238C 281.381,226.086 277.881,214.252 274,202.5C 266.491,195.792 260.157,196.792 255,205.5C 257.393,236.855 246.56,262.355 222.5,282C 206.132,293.362 190.632,305.862 176,319.5C 174.511,362.415 174.011,405.415 174.5,448.5C 183.137,448.909 191.47,450.742 199.5,454C 205.933,458.101 212.599,461.768 219.5,465C 236.167,465.333 252.833,465.667 269.5,466C 273.753,469.42 274.587,473.587 272,478.5C 271.097,479.701 269.931,480.535 268.5,481C 251.5,481.667 234.5,481.667 217.5,481C 214.107,480.202 210.774,479.202 207.5,478C 197.897,470.202 186.897,465.702 174.5,464.5C 174.79,468.936 174.29,473.27 173,477.5C 171.786,479.049 170.286,480.215 168.5,481C 144.167,481.667 119.833,481.667 95.5,481C 93.714,480.215 92.214,479.049 91,477.5C 89.3503,448.92 89.0169,420.253 90,391.5C 92.2741,385.408 96.4408,383.574 102.5,386C 103.701,386.903 104.535,388.069 105,389.5C 105.5,414.831 105.667,440.164 105.5,465.5C 123.167,465.5 140.833,465.5 158.5,465.5C 158.5,408.167 158.5,350.833 158.5,293.5C 140.833,293.5 123.167,293.5 105.5,293.5C 105.667,316.836 105.5,340.169 105,363.5C 99.6295,370.418 94.6295,370.084 90,362.5C 89.3333,336.167 89.3333,309.833 90,283.5C 90.8333,280.667 92.6667,278.833 95.5,278C 119.5,277.333 143.5,277.333 167.5,278C 169.848,278.346 171.681,279.513 173,281.5C 174.186,287.085 174.852,292.751 175,298.5C 186.714,288.396 198.88,278.896 211.5,270C 232.746,252.951 241.913,230.784 239,203.5C 242.019,190.309 250.186,182.976 263.5,181.5 Z"/></g>
<g><path style="opacity:0.935" fill="#000000" d="M 287.5,256.5 C 294.58,255.193 298.58,258.026 299.5,265C 298.317,274.6 296.65,284.1 294.5,293.5C 325.835,293.333 357.168,293.5 388.5,294C 405.521,300.192 412.688,312.359 410,330.5C 408.971,333.39 407.805,336.224 406.5,339C 421.097,350.896 424.263,365.396 416,382.5C 413.014,386.242 409.514,389.408 405.5,392C 412.187,403.506 412.021,415.006 405,426.5C 402.131,429.704 398.965,432.537 395.5,435C 403.987,450.485 401.654,464.151 388.5,476C 384.928,478.637 380.928,480.303 376.5,481C 349.5,481.667 322.5,481.667 295.5,481C 291.139,478.774 289.639,475.274 291,470.5C 291.833,468.333 293.333,466.833 295.5,466C 303.833,465.667 312.167,465.333 320.5,465C 316.063,454.678 316.73,444.678 322.5,435C 307.181,423.89 303.681,409.723 312,392.5C 314.69,388.31 318.19,384.976 322.5,382.5C 315.858,371.338 315.858,360.172 322.5,349C 308.883,338.982 304.55,325.815 309.5,309.5C 303.167,309.5 296.833,309.5 290.5,309.5C 292.956,343.14 277.956,363.973 245.5,372C 241.833,372.667 238.167,372.667 234.5,372C 228.741,368.108 228.074,363.441 232.5,358C 248.77,357.787 261.27,350.953 270,337.5C 271.927,334.052 273.261,330.385 274,326.5C 273.034,311.68 275.034,297.346 280,283.5C 281.612,275.882 282.945,268.216 284,260.5C 284.69,258.65 285.856,257.316 287.5,256.5 Z M 332.5,309.5 C 350.17,309.333 367.836,309.5 385.5,310C 392.999,313.499 395.833,319.333 394,327.5C 391.685,331.817 388.185,334.65 383.5,336C 367.167,336.667 350.833,336.667 334.5,336C 323.826,331.984 320.993,324.817 326,314.5C 327.965,312.45 330.132,310.783 332.5,309.5 Z M 342.5,352.5 C 360.17,352.333 377.836,352.5 395.5,353C 402.999,356.499 405.833,362.333 404,370.5C 401.685,374.817 398.185,377.65 393.5,379C 377.167,379.667 360.833,379.667 344.5,379C 333.826,374.984 330.993,367.817 336,357.5C 337.965,355.45 340.132,353.783 342.5,352.5 Z M 332.5,395.5 C 350.17,395.333 367.836,395.5 385.5,396C 392.999,399.499 395.833,405.333 394,413.5C 391.774,417.868 388.274,420.702 383.5,422C 367.167,422.667 350.833,422.667 334.5,422C 323.826,417.984 320.993,410.817 326,400.5C 327.965,398.45 330.132,396.783 332.5,395.5 Z M 342.5,438.5 C 353.505,438.333 364.505,438.5 375.5,439C 382.999,442.499 385.833,448.333 384,456.5C 381.993,460.593 378.827,463.427 374.5,465C 364.167,465.667 353.833,465.667 343.5,465C 333.298,460.527 330.798,453.361 336,443.5C 337.965,441.45 340.132,439.783 342.5,438.5 Z"/></g>
<g><path style="opacity:0.907" fill="#000000" d="M 124.5,322.5 C 126.857,322.337 129.19,322.503 131.5,323C 133.333,323.5 134.5,324.667 135,326.5C 135.667,335.5 135.667,344.5 135,353.5C 128.605,359.421 123.605,358.421 120,350.5C 119.333,343.167 119.333,335.833 120,328.5C 120.599,325.746 122.099,323.746 124.5,322.5 Z"/></g>
</svg>
